<?xml version="1.0" encoding="UTF-8"?>
<svg width="612px" height="612px" viewBox="0 0 612 612" version="1.1" xmlns="http://www.w3.org/2000/svg" xmlns:xlink="http://www.w3.org/1999/xlink">
    <!-- Generator: Sketch 51.3 (57544) - http://www.bohemiancoding.com/sketch -->
    <title>logo</title>
    <desc>Created with Sketch.</desc>
    <defs></defs>
    <g id="logo" stroke="none" stroke-width="1" fill="none" fill-rule="evenodd">
        <g transform="translate(0.000000, -1.000000)" fill-rule="nonzero">
            <rect id="background" fill="#168118" x="0" y="0" width="612" height="612"></rect>
            <g id="design" transform="translate(101.601562, 148.218750)" fill="#D8D8D8">
                <path d="M333.536768,56.4613623 L189.7272,56.4613623 C186.811965,56.4613623 184.4487,58.8246273 184.4487,61.7398623 L184.4487,182.28806 C184.4487,185.203295 186.811965,187.56656 189.7272,187.56656 L333.536768,187.56656 L333.536768,208.625727 C333.536768,212.850705 330.111746,216.275727 325.886768,216.275727 L162.472225,216.275727 C158.247246,216.275727 154.822225,212.850705 154.822225,208.625727 L154.822225,34.4452228 C154.822225,30.2202445 158.247246,26.7952228 162.472225,26.7952228 L325.886768,26.7952228 C330.111746,26.7952228 333.536768,30.2202445 333.536768,34.4452228 L333.536768,56.4613623 Z" id="Combined-Shape"></path>
                <path d="M266.638276,133.019142 L122.828708,133.019142 C119.913473,133.019142 117.550208,135.382407 117.550208,138.297642 L117.550208,258.845839 C117.550208,261.761074 119.913473,264.124339 122.828708,264.124339 L266.638276,264.124339 L266.638276,285.183506 C266.638276,289.408485 263.213254,292.833506 258.988276,292.833506 L95.5737325,292.833506 C91.3487542,292.833506 87.9237325,289.408485 87.9237325,285.183506 L87.9237325,111.003002 C87.9237325,106.778024 91.3487542,103.353002 95.5737325,103.353002 L258.988276,103.353002 C263.213254,103.353002 266.638276,106.778024 266.638276,111.003002 L266.638276,133.019142 Z" id="Combined-Shape-Copy" transform="translate(177.281004, 198.093254) scale(-1, 1) translate(-177.281004, -198.093254) "></path>
                <ellipse id="Oval-Copy-5" cx="170.591155" cy="117.2291" rx="32.9713997" ry="33.0155424"></ellipse>
                <ellipse id="Oval-Copy-6" cx="251.825038" cy="202.399629" rx="32.9713997" ry="33.0155424"></ellipse>
                <ellipse id="Oval-Copy-7" cx="65.9427994" cy="109.094836" rx="14.3353912" ry="14.3545836"></ellipse>
                <ellipse id="Oval-Copy-13" cx="347.872159" cy="188.523532" rx="7.64554196" ry="7.65577795"></ellipse>
                <ellipse id="Oval-Copy-14" cx="354.562008" cy="207.662977" rx="7.64554196" ry="7.65577795"></ellipse>
                <ellipse id="Oval-Copy-15" cx="373.675863" cy="198.093254" rx="7.64554196" ry="7.65577795"></ellipse>
                <ellipse id="Oval-Copy-16" cx="364.118936" cy="178.953809" rx="7.64554196" ry="7.65577795"></ellipse>
                <ellipse id="Oval-Copy-17" cx="383.232791" cy="178.953809" rx="7.64554196" ry="7.65577795"></ellipse>
                <ellipse id="Oval-Copy-18" cx="383.232791" cy="217.232699" rx="7.64554196" ry="7.65577795"></ellipse>
                <ellipse id="Oval-Copy-19" cx="364.118936" cy="226.802422" rx="7.64554196" ry="7.65577795"></ellipse>
                <ellipse id="Oval-Copy-20" cx="387.055562" cy="238.286089" rx="7.64554196" ry="7.65577795"></ellipse>
                <ellipse id="Oval-Copy-21" cx="395.656796" cy="199.050227" rx="7.64554196" ry="7.65577795"></ellipse>
                <ellipse id="Oval-Copy-11" cx="37.272017" cy="89.9553909" rx="14.3353912" ry="14.3545836"></ellipse>
                <ellipse id="Oval-Copy-12" cx="46.8289445" cy="137.804003" rx="14.3353912" ry="14.3545836"></ellipse>
                <ellipse id="Oval-Copy-5" cx="386.099869" cy="62.2031958" rx="23.8923186" ry="23.9243061"></ellipse>
                <ellipse id="Oval-Copy-10" cx="38.2277098" cy="278.478923" rx="38.2277098" ry="38.2788897"></ellipse>
                <ellipse id="Oval-Copy-9" cx="362.20755" cy="19.1394449" rx="19.1138549" ry="19.1394449"></ellipse>
                <ellipse id="Oval-Copy-8" cx="348.350005" cy="53.1119595" rx="10.0347738" ry="10.0482086"></ellipse>
            </g>
            <rect id="border" stroke="#FFFFFF" stroke-width="35.859375" x="17.9296875" y="17.9296875" width="576.140625" height="576.140625"></rect>
        </g>
    </g>
</svg>